<mxfile host="app.diagrams.net" modified="2023-06-07T04:18:27.866Z" agent="Mozilla/5.0 (Macintosh; Intel Mac OS X 10_15_7) AppleWebKit/537.36 (KHTML, like Gecko) Chrome/113.0.0.0 Safari/537.36" version="21.3.7" etag="0x8rMQVskH58nyfN8tQh" type="github">
  <diagram name="Page-1" id="6cmQ3mgbxkqvH3C31Tnt">
    <mxGraphModel>
      <root>
        <mxCell id="0" />
        <mxCell id="1" parent="0" />
      </root>
    </mxGraphModel>
  </diagram>
</mxfile>
